<svg xmlns="http://www.w3.org/2000/svg" viewBox="0.5 2.273 18.94 15.5">
	<path d="M 17.668 11.332 c 1.086 -0.947 1.775 -2.337 1.775 -3.892 c 0 -2.853 -2.313 -5.167 -5.166 -5.167 c -2.592 0 -4.731 1.911 -5.104 4.399 C 8.873 6.617 8.566 6.579 8.25 6.579 c -2.593 0 -4.734 1.912 -5.104 4.402 C 1.629 11.342 0.5 12.701 0.5 14.328 c 0 1.902 1.542 3.444 3.444 3.444 h 12.055 c 1.902 0 3.444 -1.542 3.444 -3.444 C 19.443 13.035 18.723 11.92 17.668 11.332 M 14.277 3.134 c 2.378 0 4.306 1.929 4.306 4.306 c 0 1.408 -0.68 2.653 -1.724 3.438 c -0.002 -1.424 -1.158 -2.578 -2.582 -2.578 c -0.651 0 -1.245 0.243 -1.699 0.64 c -0.605 -0.935 -1.507 -1.656 -2.568 -2.044 C 10.277 4.776 12.084 3.134 14.277 3.134 M 15.999 16.911 H 3.944 c -1.425 0 -2.583 -1.158 -2.583 -2.583 c 0 -1.2 0.816 -2.231 1.984 -2.51 c 0.342 -0.081 0.601 -0.362 0.653 -0.71 C 4.309 9.017 6.136 7.44 8.25 7.44 c 1.46 0 2.377 0.306 3.175 1.538 c 0.137 0.21 0.787 0.781 1.034 0.815 c 0.04 0.006 0.119 0.008 0.119 0.008 c 0.208 0 0.409 -0.074 0.567 -0.212 c 0.314 -0.275 0.717 -0.427 1.132 -0.427 c 0.949 0 1.722 0.772 1.721 1.731 l -0.004 0.063 c -0.019 0.408 0.252 0.772 0.646 0.874 c 1.144 0.292 1.942 1.32 1.942 2.498 C 18.583 15.753 17.424 16.911 15.999 16.911" fill="#000000"/>
</svg>